<?xml version="1.0" encoding="UTF-8"?>
<svg xmlns="http://www.w3.org/2000/svg" version="1.1" viewBox="0 0 648.1 404.8">
  <!-- Generator: Adobe Illustrator 28.7.1, SVG Export Plug-In . SVG Version: 1.2.0 Build 142)  -->
  <g>
    <g id="_レイヤー_1" data-name="レイヤー_1">
      <g>
        <path d="M323.8,26.1s-117.8-52.1-209.1-3.8C28.6,67.8-1.7,144.1-.2,201.7c2.1,79.5,39.8,124.6,80.4,159.8,37.2,32.3,142.8,70.6,243.6,16v-59.1c-45.5,34.7-130.2,44.5-183.3,17.4-53.6-27.3-84.9-72-85.6-127.3-.8-55.3,25-102,66.7-129.2,41.7-27.3,115.9-39.5,202.2,4.2V26.1Z"/>
        <path d="M197.4,143.9c-11.7-20.2-55.6-28-69.3-3-15.4,28,2.8,47.1,20.6,55.4,17.6,8.2,41.3,18,33.8,42.1-7.2,23.1-43.6,16.7-50.6-9.1l-16.5,4.5c1.6,6.9,15.5,38.3,43.4,37.9,27.8-.4,40-17.2,42.6-39,3-25.4-19.1-40-36.2-47.8-17-7.8-34.3-18.2-21.4-35.4,9.1-12.1,35-3.7,40.5,6.6l13.1-12.3Z"/>
        <path d="M255.7,129.2l-29,.2v138h16.2v-57h4.4l35.7,57h19.3l-37.8-59.4s35.6-4.8,35.4-40c-.1-21.9-19.8-38.6-44.2-38.8h0ZM247,145.7c20.5.2,35.5,5.3,35.1,24.5-.4,19.9-17.1,24.9-39.1,24.7v-49.1c1.4,0,2.7,0,4,0h0Z"/>
      </g>
    </g>
  </g>
</svg>