<?xml version="1.0" encoding="UTF-8"?>
<svg id="_レイヤー_1" data-name="レイヤー_1" xmlns="http://www.w3.org/2000/svg" viewBox="0 0 400.03 400.57">
  <defs>
    <style>
      .cls-1 {
        fill: none;
      }
    </style>
  </defs>
  <g id="_レイヤー_1-2" data-name="_レイヤー_1">
    <g>
      <path d="M321.49,24.7s-116.87-51.69-207.45-3.77C28.62,66.07-1.44,141.77.05,198.91c2.08,78.87,39.49,123.61,79.76,158.54,36.91,32.04,141.67,70.04,241.67,15.87v-58.63c-45.14,34.43-129.17,44.15-181.85,17.26-53.18-27.08-84.23-71.43-84.92-126.29-.79-54.86,24.8-101.19,66.17-128.18,41.37-27.08,114.98-39.19,200.6,4.17V24.7h0Z"/>
      <path d="M196.09,141.57c-11.61-20.04-55.16-27.78-68.75-2.98-15.28,27.78,2.78,46.73,20.44,54.96,17.46,8.14,40.97,17.86,33.53,41.77-7.14,22.92-43.26,16.57-50.2-9.03l-16.37,4.46c1.59,6.85,15.38,38,43.06,37.6,27.58-.4,39.68-17.06,42.26-38.69,2.98-25.2-18.95-39.68-35.91-47.42-16.87-7.74-34.03-18.06-21.23-35.12,9.03-12,34.72-3.67,40.18,6.55l13-12.2v.1Z"/>
      <path d="M253.93,126.98l-28.77.2v136.91h16.07v-56.55h4.37l35.42,56.55h19.15l-37.5-58.93s35.32-4.76,35.12-39.68c-.1-21.73-19.64-38.29-43.85-38.49h0ZM245.3,143.35c20.34.2,35.22,5.26,34.82,24.31-.4,19.74-16.96,24.7-38.79,24.5v-48.71h3.97v-.1Z"/>
    </g>
  </g>
  <rect class="cls-1" x=".03" width="400" height="400"/>
</svg>