<svg xmlns="http://www.w3.org/2000/svg" width="228.649mm" height="142.795mm" viewBox="0 0 228.64925 142.7952" enable-background="new"><g fill="#fff" stroke="fff"><path d="M114.565 8.844s-41.564-18.363-73.766-1.336c-30.362 16.054-41.061 42.992-40.514 63.297.756 28.061 14.03 43.943 28.36 56.391 13.107 11.385 50.374 24.905 85.92 5.661v-20.847c-16.035 12.248-45.931 15.698-64.679 6.147-18.905-9.631-29.934-25.391-30.201-44.901-.267-19.511 8.836-35.971 23.536-45.592 14.7-9.622 40.876-13.928 71.345 1.493z" stroke-width=".529"/><path d="M69.998 50.404c-4.119-7.128-19.597-9.893-24.455-1.069-5.448 9.895.999 16.625 7.252 19.542 6.196 2.89 14.571 6.339 11.925 14.869-2.528 8.147-15.384 5.893-17.84-3.207l-5.813 1.604c.568 2.438 5.479 13.497 15.301 13.363 9.822-.134 14.114-6.061 15.034-13.764 1.069-8.954-6.753-14.118-12.767-16.858-6.014-2.74-12.106-6.408-7.546-12.475 3.221-4.285 12.336-1.3 14.299 2.339z" stroke-width=".529"/><path d="M90.57 45.24l-10.237.057v48.694h5.722v-20.112h1.565l12.588 20.112h6.814l-13.344-20.964s12.56-1.679 12.493-14.101c-.042-7.721-6.985-13.632-15.6-13.686zm-3.096 5.797c7.224.085 12.513 1.862 12.384 8.637-.134 7.027-6.039 8.767-13.802 8.7v-17.333c.498-.008.937-.01 1.419-.005z" stroke-width="0.53"/><path d="M127.284 39.011c-1.689-2.922-8.218-3.822-10.41-.539-2.571 3.851.41 6.816 2.973 8.011 2.54 1.185 6.622 2.629 5.278 6.008-1.293 3.249-6.779 2.487-7.786-1.244l-2.383.657c.233.999 2.215 5.068 6.24 5.211 4.094.146 6.316-2.147 6.693-5.305.438-3.671-2.107-5.481-5.801-7.029-2.498-1.047-4.798-2.627-3.023-5.067 1.293-1.777 5.408-.7 6.48.808z" stroke-width=".529"/><path d="M604.018 218.357a25.268 25.268 0 0 0-25.268 25.268 25.268 25.268 0 0 0 25.268 25.268 25.268 25.268 0 0 0 25.268-25.268 25.268 25.268 0 0 0-25.268-25.268zm.357 8.857a15.874 15.874 0 0 1 15.873 15.875 15.874 15.874 0 0 1-15.873 15.873 15.874 15.874 0 0 1-15.873-15.873 15.874 15.874 0 0 1 15.873-15.875z" transform="matrix(.265 0 0 .265 -22.544 -14.272)" stroke-width="2"/><path d="M152.787 36.326c-2.357-.021-3.922 1.974-3.885 3.434.013.561.018 2.224.019 4.221h-2.385v2.108h2.384c-.002 4.87-.019 10.612-.019 10.612h2.413v-10.612h3.687v-2.108h-3.687v-3.654c-.142-2.011 3.005-1.798 3.62-1.041v-2.413c-.766-.378-1.488-.542-2.148-.548z" stroke-width="0.53"/><path d="M160.556 40.301v3.681h-2.108v2.209h2.108v10.473h2.309v-10.473h2.677v-2.209h-2.677v-3.681z" stroke-width="0.53"/><path d="M167.651 43.84l5.913 12.662 3.508-7.734 3.441 7.734 5.98-12.662h-2.105l-3.742 8.118-3.608-8.118s-3.408 8.185-3.541 8.118c-.134-.067-3.875-8.118-3.875-8.118z" stroke-width=".529"/><path d="M815.887 219.316a22.412 24.874 0 0 0-22.41 24.875 22.412 24.874 0 0 0 22.41 24.875 22.412 24.874 0 0 0 19.004-11.744v10.229h8.84v-47.604h-8.84v11.084a22.412 24.874 0 0 0-19.004-11.715zm3.938 7.324c8.921-.023 16.174 7.58 16.203 17.018 0 9.437-7.227 17.066-16.148 17.074-8.921.008-16.161-7.609-16.176-17.018-.015-9.409 7.2-17.051 16.121-17.074z" transform="matrix(.265 0 0 .265 -22.544 -14.272)" stroke-width="2"/><path d="M212.769 43.837c-2.221-.034-3.233.695-4.563 3.328v-3.149h-2.376v12.582h2.376v-7.536c.959-2.032 2.413-3.481 4.438-2.77l.592-2.437-.466-.017z" stroke-width="0.53"/><path d="M222.203 43.688c-4.154 0-6.426 3.139-6.426 6.693 0 3.052 2.117 6.343 6.544 6.343 2.921 0 4.355-1.384 5.409-2.486l-1.552-1.371c-.803 1.171-2.998 2.477-5.925 1.321-2.303-.909-2.451-3.593-2.451-3.593h10.978c0-2.51-1.787-6.909-6.577-6.909zm-.011 2.133c2.242 0 3.982 2.242 3.982 2.945h-8.165c0-1.372 1.941-2.945 4.183-2.945z" stroke-width="0.53"/><path d="M120.766 61.012l-4.423.023v19.459h2.472v-8.037h.676l5.439 8.037h2.944l-5.765-8.377s5.426-.671 5.397-5.635c-.018-3.085-3.018-5.447-6.74-5.469zm-1.338 2.317c3.121.034 5.406.744 5.35 3.451-.058 2.808-2.609 3.503-5.963 3.477v-6.926l.613-.002z" stroke-width="0.53"/><path d="M136.759 67.645c-4.154 0-6.426 3.14-6.426 6.694 0 3.052 2.117 6.343 6.544 6.343 2.921 0 4.355-1.384 5.409-2.486l-1.552-1.371c-.803 1.171-2.997 2.477-5.924 1.321-2.303-.909-2.452-3.593-2.452-3.593h10.978c0-2.51-1.787-6.909-6.577-6.909zm-.01 2.134c2.242 0 3.982 2.241 3.982 2.945h-8.165c0-1.372 1.941-2.945 4.183-2.945z" stroke-width="0.53"/><path d="M153.655 69.226c-1.138-1.826-5.283-2.6-7.061-.148-1.74 2.401.176 4.371 2.036 5.252 1.685.798 3.923 1.455 3.155 3.187-.695 1.567-2.864 1.353-4.511.024l-1.873.845c1.159 1.192 2.459 2.154 4.103 2.154 2.759 0 4.255-1.341 4.509-3.315.295-2.294-1.42-3.425-3.908-4.392-1.683-.654-2.5-1.642-1.706-2.623.888-1.097 3.193-.513 3.915.43z" stroke-width=".529"/><path d="M163.637 67.739c-4.154 0-6.426 3.14-6.426 6.694 0 3.052 2.117 6.343 6.544 6.343 2.921 0 4.355-1.384 5.409-2.486l-1.553-1.371c-.803 1.171-2.997 2.477-5.924 1.322-2.303-.909-2.452-3.593-2.452-3.593h10.979c0-2.51-1.788-6.909-6.578-6.909zm-.01 2.134c2.242 0 3.982 2.241 3.982 2.945h-8.164c0-1.372 1.941-2.945 4.183-2.945z" stroke-width="0.53"/><path d="M760.143 309.555a22.412 24.874 0 0 0-22.412 24.873 22.412 24.874 0 0 0 22.412 24.875 22.412 24.874 0 0 0 19.004-11.746v10.232h8.838v-47.604h-8.838v11.082a22.412 24.874 0 0 0-19.004-11.713zm3.938 7.322c8.921-.023 16.173 7.58 16.203 17.018 0 9.437-7.229 17.068-16.15 17.076-8.921.008-16.161-7.611-16.176-17.02-.015-9.409 7.202-17.051 16.123-17.074z" transform="matrix(.265 0 0 .265 -22.544 -14.272)" stroke-width="2"/><path d="M198.933 67.973c-2.221-.034-3.233.695-4.564 3.329v-3.15h-2.376v12.581h2.376v-7.534c.959-2.033 2.413-3.483 4.438-2.772l.592-2.437-.466-.017z" stroke-width="0.53"/><path d="M212.978 68.358s-3.701-1.687-6.569-.123c-2.704 1.474-3.657 3.948-3.608 5.813.067 2.577 1.249 4.036 2.526 5.179 1.167 1.046 4.462 2.287 7.628.52l.024-2.765c-1.662 1.091-4.203 1.912-5.76.848-1.778-1.215-2.195-2.005-2.312-3.793-.091-1.391.834-2.784 2.143-3.668 1.309-.884 3.191-.759 5.952.562z" stroke-width=".529"/><path d="M216.715 60.629v19.797h2.599v-6.78c0-1.37.849-4.158 3.307-4.158 2.525 0 2.646 2.173 2.646 3.26v7.678h2.504v-8.958c-.048-1.236-1.309-4.011-4.11-4.011-2.701 0-4.394 2.457-4.394 2.457v-9.284z" stroke-width=".529"/><path d="M129.994 85.864s-6.071-2.682-10.775-.195c-4.435 2.345-5.998 6.28-5.918 9.246.11 4.099 2.049 6.419 4.143 8.237 1.915 1.663 7.319 3.638 12.511.827l.039-3.045c-2.342 1.789-6.709 2.293-9.448.898-2.762-1.407-4.372-3.709-4.412-6.559-.039-2.85 1.291-5.254 3.438-6.66 2.147-1.405 6.01-2.034 10.46.218z" stroke-width=".529"/><path stroke-width=".529" d="M135.166 84.985h2.551v19.749h-2.551z"/><path d="M143.564 92.332v8.152c0 2.175 2.138 4.644 5.279 4.644 3.441 0 5.546-2.465 5.546-4.41v-8.386h-2.472v7.985c0 1.138-1.403 2.706-2.973 2.706-1.57 0-3.04-1.169-3.04-2.74v-7.951z" stroke-width=".529"/><path d="M157.913 85.228v19.787h2.422v-2.711c1.119 1.932 3.134 2.778 5.253 2.781 3.391 0 6.093-2.62 6.093-6.26 0-3.641-2.749-6.592-6.141-6.592-2.118.002-4.086 1.175-5.206 3.104v-10.109zm6.549 8.945c2.444.006 4.421 2.031 4.417 4.525-.004 2.493-1.987 4.512-4.432 4.51-2.444-.002-4.425-2.024-4.425-4.525.008-2.501 1.995-4.516 4.439-4.51z" stroke-width="0.53"/></g></svg>